solid cone
facet normal 0.939582580 0.092540807 0.329576659
outer loop
vertex 0.110492308 0.000000000 0.010000000
vertex 0.108369229 0.021555980 0.010000000
vertex 0.056764834 0.011291228 0.160000000
endloop
endfacet
facet normal 0.939582580 0.092540807 0.329576659
outer loop
vertex 0.110492308 0.000000000 0.010000000
vertex 0.056764834 0.011291228 0.160000000
vertex 0.057876923 0.000000000 0.160000000
endloop
endfacet
facet normal 0.903474949 0.274066129 0.329576659
outer loop
vertex 0.108369229 0.021555980 0.010000000
vertex 0.102081582 0.042283576 0.010000000
vertex 0.053471305 0.022148540 0.160000000
endloop
endfacet
facet normal 0.903474949 0.274066129 0.329576659
outer loop
vertex 0.108369229 0.021555980 0.010000000
vertex 0.053471305 0.022148540 0.160000000
vertex 0.056764834 0.011291228 0.160000000
endloop
endfacet
facet normal 0.832647281 0.445059244 0.329576659
outer loop
vertex 0.102081582 0.042283576 0.010000000
vertex 0.091870996 0.061386237 0.010000000
vertex 0.048122903 0.032154696 0.160000000
endloop
endfacet
facet normal 0.832647281 0.445059244 0.329576659
outer loop
vertex 0.102081582 0.042283576 0.010000000
vertex 0.048122903 0.032154696 0.160000000
vertex 0.053471305 0.022148540 0.160000000
endloop
endfacet
facet normal 0.729821446 0.598948982 0.329576659
outer loop
vertex 0.091870996 0.061386237 0.010000000
vertex 0.078129860 0.078129860 0.010000000
vertex 0.040925165 0.040925165 0.160000000
endloop
endfacet
facet normal 0.729821446 0.598948982 0.329576659
outer loop
vertex 0.091870996 0.061386237 0.010000000
vertex 0.040925165 0.040925165 0.160000000
vertex 0.048122903 0.032154696 0.160000000
endloop
endfacet
facet normal 0.598948982 0.729821446 0.329576659
outer loop
vertex 0.078129860 0.078129860 0.010000000
vertex 0.061386237 0.091870996 0.010000000
vertex 0.032154696 0.048122903 0.160000000
endloop
endfacet
facet normal 0.598948982 0.729821446 0.329576659
outer loop
vertex 0.078129860 0.078129860 0.010000000
vertex 0.032154696 0.048122903 0.160000000
vertex 0.040925165 0.040925165 0.160000000
endloop
endfacet
facet normal 0.445059244 0.832647281 0.329576659
outer loop
vertex 0.061386237 0.091870996 0.010000000
vertex 0.042283576 0.102081582 0.010000000
vertex 0.022148540 0.053471305 0.160000000
endloop
endfacet
facet normal 0.445059244 0.832647281 0.329576659
outer loop
vertex 0.061386237 0.091870996 0.010000000
vertex 0.022148540 0.053471305 0.160000000
vertex 0.032154696 0.048122903 0.160000000
endloop
endfacet
facet normal 0.274066129 0.903474949 0.329576659
outer loop
vertex 0.042283576 0.102081582 0.010000000
vertex 0.021555980 0.108369229 0.010000000
vertex 0.011291228 0.056764834 0.160000000
endloop
endfacet
facet normal 0.274066129 0.903474949 0.329576659
outer loop
vertex 0.042283576 0.102081582 0.010000000
vertex 0.011291228 0.056764834 0.160000000
vertex 0.022148540 0.053471305 0.160000000
endloop
endfacet
facet normal 0.092540807 0.939582580 0.329576659
outer loop
vertex 0.021555980 0.108369229 0.010000000
vertex 0.000000000 0.110492308 0.010000000
vertex 0.000000000 0.057876923 0.160000000
endloop
endfacet
facet normal 0.092540807 0.939582580 0.329576659
outer loop
vertex 0.021555980 0.108369229 0.010000000
vertex 0.000000000 0.057876923 0.160000000
vertex 0.011291228 0.056764834 0.160000000
endloop
endfacet
facet normal -0.092540807 0.939582580 0.329576659
outer loop
vertex 0.000000000 0.110492308 0.010000000
vertex -0.021555980 0.108369229 0.010000000
vertex -0.011291228 0.056764834 0.160000000
endloop
endfacet
facet normal -0.092540807 0.939582580 0.329576659
outer loop
vertex 0.000000000 0.110492308 0.010000000
vertex -0.011291228 0.056764834 0.160000000
vertex 0.000000000 0.057876923 0.160000000
endloop
endfacet
facet normal -0.274066129 0.903474949 0.329576659
outer loop
vertex -0.021555980 0.108369229 0.010000000
vertex -0.042283576 0.102081582 0.010000000
vertex -0.022148540 0.053471305 0.160000000
endloop
endfacet
facet normal -0.274066129 0.903474949 0.329576659
outer loop
vertex -0.021555980 0.108369229 0.010000000
vertex -0.022148540 0.053471305 0.160000000
vertex -0.011291228 0.056764834 0.160000000
endloop
endfacet
facet normal -0.445059244 0.832647281 0.329576659
outer loop
vertex -0.042283576 0.102081582 0.010000000
vertex -0.061386237 0.091870996 0.010000000
vertex -0.032154696 0.048122903 0.160000000
endloop
endfacet
facet normal -0.445059244 0.832647281 0.329576659
outer loop
vertex -0.042283576 0.102081582 0.010000000
vertex -0.032154696 0.048122903 0.160000000
vertex -0.022148540 0.053471305 0.160000000
endloop
endfacet
facet normal -0.598948982 0.729821446 0.329576659
outer loop
vertex -0.061386237 0.091870996 0.010000000
vertex -0.078129860 0.078129860 0.010000000
vertex -0.040925165 0.040925165 0.160000000
endloop
endfacet
facet normal -0.598948982 0.729821446 0.329576659
outer loop
vertex -0.061386237 0.091870996 0.010000000
vertex -0.040925165 0.040925165 0.160000000
vertex -0.032154696 0.048122903 0.160000000
endloop
endfacet
facet normal -0.729821446 0.598948982 0.329576659
outer loop
vertex -0.078129860 0.078129860 0.010000000
vertex -0.091870996 0.061386237 0.010000000
vertex -0.048122903 0.032154696 0.160000000
endloop
endfacet
facet normal -0.729821446 0.598948982 0.329576659
outer loop
vertex -0.078129860 0.078129860 0.010000000
vertex -0.048122903 0.032154696 0.160000000
vertex -0.040925165 0.040925165 0.160000000
endloop
endfacet
facet normal -0.832647281 0.445059244 0.329576659
outer loop
vertex -0.091870996 0.061386237 0.010000000
vertex -0.102081582 0.042283576 0.010000000
vertex -0.053471305 0.022148540 0.160000000
endloop
endfacet
facet normal -0.832647281 0.445059244 0.329576659
outer loop
vertex -0.091870996 0.061386237 0.010000000
vertex -0.053471305 0.022148540 0.160000000
vertex -0.048122903 0.032154696 0.160000000
endloop
endfacet
facet normal -0.903474949 0.274066129 0.329576659
outer loop
vertex -0.102081582 0.042283576 0.010000000
vertex -0.108369229 0.021555980 0.010000000
vertex -0.056764834 0.011291228 0.160000000
endloop
endfacet
facet normal -0.903474949 0.274066129 0.329576659
outer loop
vertex -0.102081582 0.042283576 0.010000000
vertex -0.056764834 0.011291228 0.160000000
vertex -0.053471305 0.022148540 0.160000000
endloop
endfacet
facet normal -0.939582580 0.092540807 0.329576659
outer loop
vertex -0.108369229 0.021555980 0.010000000
vertex -0.110492308 0.000000000 0.010000000
vertex -0.057876923 0.000000000 0.160000000
endloop
endfacet
facet normal -0.939582580 0.092540807 0.329576659
outer loop
vertex -0.108369229 0.021555980 0.010000000
vertex -0.057876923 0.000000000 0.160000000
vertex -0.056764834 0.011291228 0.160000000
endloop
endfacet
facet normal -0.939582580 -0.092540807 0.329576659
outer loop
vertex -0.110492308 0.000000000 0.010000000
vertex -0.108369229 -0.021555980 0.010000000
vertex -0.056764834 -0.011291228 0.160000000
endloop
endfacet
facet normal -0.939582580 -0.092540807 0.329576659
outer loop
vertex -0.110492308 0.000000000 0.010000000
vertex -0.056764834 -0.011291228 0.160000000
vertex -0.057876923 0.000000000 0.160000000
endloop
endfacet
facet normal -0.903474949 -0.274066129 0.329576659
outer loop
vertex -0.108369229 -0.021555980 0.010000000
vertex -0.102081582 -0.042283576 0.010000000
vertex -0.053471305 -0.022148540 0.160000000
endloop
endfacet
facet normal -0.903474949 -0.274066129 0.329576659
outer loop
vertex -0.108369229 -0.021555980 0.010000000
vertex -0.053471305 -0.022148540 0.160000000
vertex -0.056764834 -0.011291228 0.160000000
endloop
endfacet
facet normal -0.832647281 -0.445059244 0.329576659
outer loop
vertex -0.102081582 -0.042283576 0.010000000
vertex -0.091870996 -0.061386237 0.010000000
vertex -0.048122903 -0.032154696 0.160000000
endloop
endfacet
facet normal -0.832647281 -0.445059244 0.329576659
outer loop
vertex -0.102081582 -0.042283576 0.010000000
vertex -0.048122903 -0.032154696 0.160000000
vertex -0.053471305 -0.022148540 0.160000000
endloop
endfacet
facet normal -0.729821446 -0.598948982 0.329576659
outer loop
vertex -0.091870996 -0.061386237 0.010000000
vertex -0.078129860 -0.078129860 0.010000000
vertex -0.040925165 -0.040925165 0.160000000
endloop
endfacet
facet normal -0.729821446 -0.598948982 0.329576659
outer loop
vertex -0.091870996 -0.061386237 0.010000000
vertex -0.040925165 -0.040925165 0.160000000
vertex -0.048122903 -0.032154696 0.160000000
endloop
endfacet
facet normal -0.598948982 -0.729821446 0.329576659
outer loop
vertex -0.078129860 -0.078129860 0.010000000
vertex -0.061386237 -0.091870996 0.010000000
vertex -0.032154696 -0.048122903 0.160000000
endloop
endfacet
facet normal -0.598948982 -0.729821446 0.329576659
outer loop
vertex -0.078129860 -0.078129860 0.010000000
vertex -0.032154696 -0.048122903 0.160000000
vertex -0.040925165 -0.040925165 0.160000000
endloop
endfacet
facet normal -0.445059244 -0.832647281 0.329576659
outer loop
vertex -0.061386237 -0.091870996 0.010000000
vertex -0.042283576 -0.102081582 0.010000000
vertex -0.022148540 -0.053471305 0.160000000
endloop
endfacet
facet normal -0.445059244 -0.832647281 0.329576659
outer loop
vertex -0.061386237 -0.091870996 0.010000000
vertex -0.022148540 -0.053471305 0.160000000
vertex -0.032154696 -0.048122903 0.160000000
endloop
endfacet
facet normal -0.274066129 -0.903474949 0.329576659
outer loop
vertex -0.042283576 -0.102081582 0.010000000
vertex -0.021555980 -0.108369229 0.010000000
vertex -0.011291228 -0.056764834 0.160000000
endloop
endfacet
facet normal -0.274066129 -0.903474949 0.329576659
outer loop
vertex -0.042283576 -0.102081582 0.010000000
vertex -0.011291228 -0.056764834 0.160000000
vertex -0.022148540 -0.053471305 0.160000000
endloop
endfacet
facet normal -0.092540807 -0.939582580 0.329576659
outer loop
vertex -0.021555980 -0.108369229 0.010000000
vertex -0.000000000 -0.110492308 0.010000000
vertex -0.000000000 -0.057876923 0.160000000
endloop
endfacet
facet normal -0.092540807 -0.939582580 0.329576659
outer loop
vertex -0.021555980 -0.108369229 0.010000000
vertex -0.000000000 -0.057876923 0.160000000
vertex -0.011291228 -0.056764834 0.160000000
endloop
endfacet
facet normal 0.092540807 -0.939582580 0.329576659
outer loop
vertex -0.000000000 -0.110492308 0.010000000
vertex 0.021555980 -0.108369229 0.010000000
vertex 0.011291228 -0.056764834 0.160000000
endloop
endfacet
facet normal 0.092540807 -0.939582580 0.329576659
outer loop
vertex -0.000000000 -0.110492308 0.010000000
vertex 0.011291228 -0.056764834 0.160000000
vertex -0.000000000 -0.057876923 0.160000000
endloop
endfacet
facet normal 0.274066129 -0.903474949 0.329576659
outer loop
vertex 0.021555980 -0.108369229 0.010000000
vertex 0.042283576 -0.102081582 0.010000000
vertex 0.022148540 -0.053471305 0.160000000
endloop
endfacet
facet normal 0.274066129 -0.903474949 0.329576659
outer loop
vertex 0.021555980 -0.108369229 0.010000000
vertex 0.022148540 -0.053471305 0.160000000
vertex 0.011291228 -0.056764834 0.160000000
endloop
endfacet
facet normal 0.445059244 -0.832647281 0.329576659
outer loop
vertex 0.042283576 -0.102081582 0.010000000
vertex 0.061386237 -0.091870996 0.010000000
vertex 0.032154696 -0.048122903 0.160000000
endloop
endfacet
facet normal 0.445059244 -0.832647281 0.329576659
outer loop
vertex 0.042283576 -0.102081582 0.010000000
vertex 0.032154696 -0.048122903 0.160000000
vertex 0.022148540 -0.053471305 0.160000000
endloop
endfacet
facet normal 0.598948982 -0.729821446 0.329576659
outer loop
vertex 0.061386237 -0.091870996 0.010000000
vertex 0.078129860 -0.078129860 0.010000000
vertex 0.040925165 -0.040925165 0.160000000
endloop
endfacet
facet normal 0.598948982 -0.729821446 0.329576659
outer loop
vertex 0.061386237 -0.091870996 0.010000000
vertex 0.040925165 -0.040925165 0.160000000
vertex 0.032154696 -0.048122903 0.160000000
endloop
endfacet
facet normal 0.729821446 -0.598948982 0.329576659
outer loop
vertex 0.078129860 -0.078129860 0.010000000
vertex 0.091870996 -0.061386237 0.010000000
vertex 0.048122903 -0.032154696 0.160000000
endloop
endfacet
facet normal 0.729821446 -0.598948982 0.329576659
outer loop
vertex 0.078129860 -0.078129860 0.010000000
vertex 0.048122903 -0.032154696 0.160000000
vertex 0.040925165 -0.040925165 0.160000000
endloop
endfacet
facet normal 0.832647281 -0.445059244 0.329576659
outer loop
vertex 0.091870996 -0.061386237 0.010000000
vertex 0.102081582 -0.042283576 0.010000000
vertex 0.053471305 -0.022148540 0.160000000
endloop
endfacet
facet normal 0.832647281 -0.445059244 0.329576659
outer loop
vertex 0.091870996 -0.061386237 0.010000000
vertex 0.053471305 -0.022148540 0.160000000
vertex 0.048122903 -0.032154696 0.160000000
endloop
endfacet
facet normal 0.903474949 -0.274066129 0.329576659
outer loop
vertex 0.102081582 -0.042283576 0.010000000
vertex 0.108369229 -0.021555980 0.010000000
vertex 0.056764834 -0.011291228 0.160000000
endloop
endfacet
facet normal 0.903474949 -0.274066129 0.329576659
outer loop
vertex 0.102081582 -0.042283576 0.010000000
vertex 0.056764834 -0.011291228 0.160000000
vertex 0.053471305 -0.022148540 0.160000000
endloop
endfacet
facet normal 0.939582580 -0.092540807 0.329576659
outer loop
vertex 0.108369229 -0.021555980 0.010000000
vertex 0.110492308 -0.000000000 0.010000000
vertex 0.057876923 -0.000000000 0.160000000
endloop
endfacet
facet normal 0.939582580 -0.092540807 0.329576659
outer loop
vertex 0.108369229 -0.021555980 0.010000000
vertex 0.057876923 -0.000000000 0.160000000
vertex 0.056764834 -0.011291228 0.160000000
endloop
endfacet
facet normal 0.939582580 0.092540807 0.329576659
outer loop
vertex 0.040338462 0.000000000 0.210000000
vertex 0.039563369 0.007869643 0.210000000
vertex 0.000000000 0.000000000 0.325000000
endloop
endfacet
facet normal 0.903474949 0.274066129 0.329576659
outer loop
vertex 0.039563369 0.007869643 0.210000000
vertex 0.037267879 0.015436861 0.210000000
vertex 0.000000000 0.000000000 0.325000000
endloop
endfacet
facet normal 0.832647281 0.445059244 0.329576659
outer loop
vertex 0.037267879 0.015436861 0.210000000
vertex 0.033540205 0.022410848 0.210000000
vertex 0.000000000 0.000000000 0.325000000
endloop
endfacet
facet normal 0.729821446 0.598948982 0.329576659
outer loop
vertex 0.033540205 0.022410848 0.210000000
vertex 0.028523600 0.028523600 0.210000000
vertex 0.000000000 0.000000000 0.325000000
endloop
endfacet
facet normal 0.598948982 0.729821446 0.329576659
outer loop
vertex 0.028523600 0.028523600 0.210000000
vertex 0.022410848 0.033540205 0.210000000
vertex 0.000000000 0.000000000 0.325000000
endloop
endfacet
facet normal 0.445059244 0.832647281 0.329576659
outer loop
vertex 0.022410848 0.033540205 0.210000000
vertex 0.015436861 0.037267879 0.210000000
vertex 0.000000000 0.000000000 0.325000000
endloop
endfacet
facet normal 0.274066129 0.903474949 0.329576659
outer loop
vertex 0.015436861 0.037267879 0.210000000
vertex 0.007869643 0.039563369 0.210000000
vertex 0.000000000 0.000000000 0.325000000
endloop
endfacet
facet normal 0.092540807 0.939582580 0.329576659
outer loop
vertex 0.007869643 0.039563369 0.210000000
vertex 0.000000000 0.040338462 0.210000000
vertex 0.000000000 0.000000000 0.325000000
endloop
endfacet
facet normal -0.092540807 0.939582580 0.329576659
outer loop
vertex 0.000000000 0.040338462 0.210000000
vertex -0.007869643 0.039563369 0.210000000
vertex -0.000000000 0.000000000 0.325000000
endloop
endfacet
facet normal -0.274066129 0.903474949 0.329576659
outer loop
vertex -0.007869643 0.039563369 0.210000000
vertex -0.015436861 0.037267879 0.210000000
vertex -0.000000000 0.000000000 0.325000000
endloop
endfacet
facet normal -0.445059244 0.832647281 0.329576659
outer loop
vertex -0.015436861 0.037267879 0.210000000
vertex -0.022410848 0.033540205 0.210000000
vertex -0.000000000 0.000000000 0.325000000
endloop
endfacet
facet normal -0.598948982 0.729821446 0.329576659
outer loop
vertex -0.022410848 0.033540205 0.210000000
vertex -0.028523600 0.028523600 0.210000000
vertex -0.000000000 0.000000000 0.325000000
endloop
endfacet
facet normal -0.729821446 0.598948982 0.329576659
outer loop
vertex -0.028523600 0.028523600 0.210000000
vertex -0.033540205 0.022410848 0.210000000
vertex -0.000000000 0.000000000 0.325000000
endloop
endfacet
facet normal -0.832647281 0.445059244 0.329576659
outer loop
vertex -0.033540205 0.022410848 0.210000000
vertex -0.037267879 0.015436861 0.210000000
vertex -0.000000000 0.000000000 0.325000000
endloop
endfacet
facet normal -0.903474949 0.274066129 0.329576659
outer loop
vertex -0.037267879 0.015436861 0.210000000
vertex -0.039563369 0.007869643 0.210000000
vertex -0.000000000 0.000000000 0.325000000
endloop
endfacet
facet normal -0.939582580 0.092540807 0.329576659
outer loop
vertex -0.039563369 0.007869643 0.210000000
vertex -0.040338462 0.000000000 0.210000000
vertex -0.000000000 0.000000000 0.325000000
endloop
endfacet
facet normal -0.939582580 -0.092540807 0.329576659
outer loop
vertex -0.040338462 0.000000000 0.210000000
vertex -0.039563369 -0.007869643 0.210000000
vertex -0.000000000 -0.000000000 0.325000000
endloop
endfacet
facet normal -0.903474949 -0.274066129 0.329576659
outer loop
vertex -0.039563369 -0.007869643 0.210000000
vertex -0.037267879 -0.015436861 0.210000000
vertex -0.000000000 -0.000000000 0.325000000
endloop
endfacet
facet normal -0.832647281 -0.445059244 0.329576659
outer loop
vertex -0.037267879 -0.015436861 0.210000000
vertex -0.033540205 -0.022410848 0.210000000
vertex -0.000000000 -0.000000000 0.325000000
endloop
endfacet
facet normal -0.729821446 -0.598948982 0.329576659
outer loop
vertex -0.033540205 -0.022410848 0.210000000
vertex -0.028523600 -0.028523600 0.210000000
vertex -0.000000000 -0.000000000 0.325000000
endloop
endfacet
facet normal -0.598948982 -0.729821446 0.329576659
outer loop
vertex -0.028523600 -0.028523600 0.210000000
vertex -0.022410848 -0.033540205 0.210000000
vertex -0.000000000 -0.000000000 0.325000000
endloop
endfacet
facet normal -0.445059244 -0.832647281 0.329576659
outer loop
vertex -0.022410848 -0.033540205 0.210000000
vertex -0.015436861 -0.037267879 0.210000000
vertex -0.000000000 -0.000000000 0.325000000
endloop
endfacet
facet normal -0.274066129 -0.903474949 0.329576659
outer loop
vertex -0.015436861 -0.037267879 0.210000000
vertex -0.007869643 -0.039563369 0.210000000
vertex -0.000000000 -0.000000000 0.325000000
endloop
endfacet
facet normal -0.092540807 -0.939582580 0.329576659
outer loop
vertex -0.007869643 -0.039563369 0.210000000
vertex -0.000000000 -0.040338462 0.210000000
vertex -0.000000000 -0.000000000 0.325000000
endloop
endfacet
facet normal 0.092540807 -0.939582580 0.329576659
outer loop
vertex -0.000000000 -0.040338462 0.210000000
vertex 0.007869643 -0.039563369 0.210000000
vertex 0.000000000 -0.000000000 0.325000000
endloop
endfacet
facet normal 0.274066129 -0.903474949 0.329576659
outer loop
vertex 0.007869643 -0.039563369 0.210000000
vertex 0.015436861 -0.037267879 0.210000000
vertex 0.000000000 -0.000000000 0.325000000
endloop
endfacet
facet normal 0.445059244 -0.832647281 0.329576659
outer loop
vertex 0.015436861 -0.037267879 0.210000000
vertex 0.022410848 -0.033540205 0.210000000
vertex 0.000000000 -0.000000000 0.325000000
endloop
endfacet
facet normal 0.598948982 -0.729821446 0.329576659
outer loop
vertex 0.022410848 -0.033540205 0.210000000
vertex 0.028523600 -0.028523600 0.210000000
vertex 0.000000000 -0.000000000 0.325000000
endloop
endfacet
facet normal 0.729821446 -0.598948982 0.329576659
outer loop
vertex 0.028523600 -0.028523600 0.210000000
vertex 0.033540205 -0.022410848 0.210000000
vertex 0.000000000 -0.000000000 0.325000000
endloop
endfacet
facet normal 0.832647281 -0.445059244 0.329576659
outer loop
vertex 0.033540205 -0.022410848 0.210000000
vertex 0.037267879 -0.015436861 0.210000000
vertex 0.000000000 -0.000000000 0.325000000
endloop
endfacet
facet normal 0.903474949 -0.274066129 0.329576659
outer loop
vertex 0.037267879 -0.015436861 0.210000000
vertex 0.039563369 -0.007869643 0.210000000
vertex 0.000000000 -0.000000000 0.325000000
endloop
endfacet
facet normal 0.939582580 -0.092540807 0.329576659
outer loop
vertex 0.039563369 -0.007869643 0.210000000
vertex 0.040338462 -0.000000000 0.210000000
vertex 0.000000000 -0.000000000 0.325000000
endloop
endfacet
facet normal 0.000000000 -1.000000000 0.000000000
outer loop
vertex -0.114000000 -0.114000000 0.000000000
vertex 0.114000000 -0.114000000 0.000000000
vertex 0.114000000 -0.114000000 0.010000000
endloop
endfacet
facet normal 0.000000000 -1.000000000 0.000000000
outer loop
vertex -0.114000000 -0.114000000 0.000000000
vertex 0.114000000 -0.114000000 0.010000000
vertex -0.114000000 -0.114000000 0.010000000
endloop
endfacet
facet normal 1.000000000 0.000000000 0.000000000
outer loop
vertex 0.114000000 -0.114000000 0.000000000
vertex 0.114000000 0.114000000 0.000000000
vertex 0.114000000 0.114000000 0.010000000
endloop
endfacet
facet normal 1.000000000 0.000000000 0.000000000
outer loop
vertex 0.114000000 -0.114000000 0.000000000
vertex 0.114000000 0.114000000 0.010000000
vertex 0.114000000 -0.114000000 0.010000000
endloop
endfacet
facet normal 0.000000000 1.000000000 0.000000000
outer loop
vertex 0.114000000 0.114000000 0.000000000
vertex -0.114000000 0.114000000 0.000000000
vertex -0.114000000 0.114000000 0.010000000
endloop
endfacet
facet normal 0.000000000 1.000000000 -0.000000000
outer loop
vertex 0.114000000 0.114000000 0.000000000
vertex -0.114000000 0.114000000 0.010000000
vertex 0.114000000 0.114000000 0.010000000
endloop
endfacet
facet normal -1.000000000 0.000000000 0.000000000
outer loop
vertex -0.114000000 0.114000000 0.000000000
vertex -0.114000000 -0.114000000 0.000000000
vertex -0.114000000 -0.114000000 0.010000000
endloop
endfacet
facet normal -1.000000000 0.000000000 0.000000000
outer loop
vertex -0.114000000 0.114000000 0.000000000
vertex -0.114000000 -0.114000000 0.010000000
vertex -0.114000000 0.114000000 0.010000000
endloop
endfacet
facet normal 0.000000000 0.000000000 1.000000000
outer loop
vertex -0.114000000 -0.114000000 0.010000000
vertex 0.114000000 -0.114000000 0.010000000
vertex 0.114000000 0.114000000 0.010000000
endloop
endfacet
facet normal 0.000000000 0.000000000 1.000000000
outer loop
vertex -0.114000000 -0.114000000 0.010000000
vertex 0.114000000 0.114000000 0.010000000
vertex -0.114000000 0.114000000 0.010000000
endloop
endfacet
facet normal 0.000000000 -0.000000000 -1.000000000
outer loop
vertex 0.114000000 0.114000000 0.000000000
vertex 0.114000000 -0.114000000 0.000000000
vertex -0.114000000 -0.114000000 0.000000000
endloop
endfacet
facet normal 0.000000000 0.000000000 -1.000000000
outer loop
vertex -0.114000000 0.114000000 0.000000000
vertex 0.114000000 0.114000000 0.000000000
vertex -0.114000000 -0.114000000 0.000000000
endloop
endfacet
endsolid cone
