solid cone
facet normal 0.958122952 0.094366874 0.270361427
outer loop
vertex 0.091707921 0.000000000 0.180000000
vertex 0.089945779 0.017891328 0.180000000
vertex 0.076107967 0.015138816 0.230000000
endloop
endfacet
facet normal 0.958122952 0.094366874 0.270361427
outer loop
vertex 0.091707921 0.000000000 0.180000000
vertex 0.076107967 0.015138816 0.230000000
vertex 0.077599010 0.000000000 0.230000000
endloop
endfacet
facet normal 0.921302825 0.279474156 0.270361427
outer loop
vertex 0.089945779 0.017891328 0.180000000
vertex 0.084727071 0.035095102 0.180000000
vertex 0.071692137 0.029695855 0.230000000
endloop
endfacet
facet normal 0.921302825 0.279474156 0.270361427
outer loop
vertex 0.089945779 0.017891328 0.180000000
vertex 0.071692137 0.029695855 0.230000000
vertex 0.076107967 0.015138816 0.230000000
endloop
endfacet
facet normal 0.849077546 0.453841404 0.270361427
outer loop
vertex 0.084727071 0.035095102 0.180000000
vertex 0.076252349 0.050950191 0.180000000
vertex 0.064521219 0.043111700 0.230000000
endloop
endfacet
facet normal 0.849077546 0.453841404 0.270361427
outer loop
vertex 0.084727071 0.035095102 0.180000000
vertex 0.064521219 0.043111700 0.230000000
vertex 0.071692137 0.029695855 0.230000000
endloop
endfacet
facet normal 0.744222693 0.610767780 0.270361427
outer loop
vertex 0.076252349 0.050950191 0.180000000
vertex 0.064847293 0.064847293 0.180000000
vertex 0.054870786 0.054870786 0.230000000
endloop
endfacet
facet normal 0.744222693 0.610767780 0.270361427
outer loop
vertex 0.076252349 0.050950191 0.180000000
vertex 0.054870786 0.054870786 0.230000000
vertex 0.064521219 0.043111700 0.230000000
endloop
endfacet
facet normal 0.610767780 0.744222693 0.270361427
outer loop
vertex 0.064847293 0.064847293 0.180000000
vertex 0.050950191 0.076252349 0.180000000
vertex 0.043111700 0.064521219 0.230000000
endloop
endfacet
facet normal 0.610767780 0.744222693 0.270361427
outer loop
vertex 0.064847293 0.064847293 0.180000000
vertex 0.043111700 0.064521219 0.230000000
vertex 0.054870786 0.054870786 0.230000000
endloop
endfacet
facet normal 0.453841404 0.849077546 0.270361427
outer loop
vertex 0.050950191 0.076252349 0.180000000
vertex 0.035095102 0.084727071 0.180000000
vertex 0.029695855 0.071692137 0.230000000
endloop
endfacet
facet normal 0.453841404 0.849077546 0.270361427
outer loop
vertex 0.050950191 0.076252349 0.180000000
vertex 0.029695855 0.071692137 0.230000000
vertex 0.043111700 0.064521219 0.230000000
endloop
endfacet
facet normal 0.279474156 0.921302825 0.270361427
outer loop
vertex 0.035095102 0.084727071 0.180000000
vertex 0.017891328 0.089945779 0.180000000
vertex 0.015138816 0.076107967 0.230000000
endloop
endfacet
facet normal 0.279474156 0.921302825 0.270361427
outer loop
vertex 0.035095102 0.084727071 0.180000000
vertex 0.015138816 0.076107967 0.230000000
vertex 0.029695855 0.071692137 0.230000000
endloop
endfacet
facet normal 0.094366874 0.958122952 0.270361427
outer loop
vertex 0.017891328 0.089945779 0.180000000
vertex 0.000000000 0.091707921 0.180000000
vertex 0.000000000 0.077599010 0.230000000
endloop
endfacet
facet normal 0.094366874 0.958122952 0.270361427
outer loop
vertex 0.017891328 0.089945779 0.180000000
vertex 0.000000000 0.077599010 0.230000000
vertex 0.015138816 0.076107967 0.230000000
endloop
endfacet
facet normal -0.094366874 0.958122952 0.270361427
outer loop
vertex 0.000000000 0.091707921 0.180000000
vertex -0.017891328 0.089945779 0.180000000
vertex -0.015138816 0.076107967 0.230000000
endloop
endfacet
facet normal -0.094366874 0.958122952 0.270361427
outer loop
vertex 0.000000000 0.091707921 0.180000000
vertex -0.015138816 0.076107967 0.230000000
vertex 0.000000000 0.077599010 0.230000000
endloop
endfacet
facet normal -0.279474156 0.921302825 0.270361427
outer loop
vertex -0.017891328 0.089945779 0.180000000
vertex -0.035095102 0.084727071 0.180000000
vertex -0.029695855 0.071692137 0.230000000
endloop
endfacet
facet normal -0.279474156 0.921302825 0.270361427
outer loop
vertex -0.017891328 0.089945779 0.180000000
vertex -0.029695855 0.071692137 0.230000000
vertex -0.015138816 0.076107967 0.230000000
endloop
endfacet
facet normal -0.453841404 0.849077546 0.270361427
outer loop
vertex -0.035095102 0.084727071 0.180000000
vertex -0.050950191 0.076252349 0.180000000
vertex -0.043111700 0.064521219 0.230000000
endloop
endfacet
facet normal -0.453841404 0.849077546 0.270361427
outer loop
vertex -0.035095102 0.084727071 0.180000000
vertex -0.043111700 0.064521219 0.230000000
vertex -0.029695855 0.071692137 0.230000000
endloop
endfacet
facet normal -0.610767780 0.744222693 0.270361427
outer loop
vertex -0.050950191 0.076252349 0.180000000
vertex -0.064847293 0.064847293 0.180000000
vertex -0.054870786 0.054870786 0.230000000
endloop
endfacet
facet normal -0.610767780 0.744222693 0.270361427
outer loop
vertex -0.050950191 0.076252349 0.180000000
vertex -0.054870786 0.054870786 0.230000000
vertex -0.043111700 0.064521219 0.230000000
endloop
endfacet
facet normal -0.744222693 0.610767780 0.270361427
outer loop
vertex -0.064847293 0.064847293 0.180000000
vertex -0.076252349 0.050950191 0.180000000
vertex -0.064521219 0.043111700 0.230000000
endloop
endfacet
facet normal -0.744222693 0.610767780 0.270361427
outer loop
vertex -0.064847293 0.064847293 0.180000000
vertex -0.064521219 0.043111700 0.230000000
vertex -0.054870786 0.054870786 0.230000000
endloop
endfacet
facet normal -0.849077546 0.453841404 0.270361427
outer loop
vertex -0.076252349 0.050950191 0.180000000
vertex -0.084727071 0.035095102 0.180000000
vertex -0.071692137 0.029695855 0.230000000
endloop
endfacet
facet normal -0.849077546 0.453841404 0.270361427
outer loop
vertex -0.076252349 0.050950191 0.180000000
vertex -0.071692137 0.029695855 0.230000000
vertex -0.064521219 0.043111700 0.230000000
endloop
endfacet
facet normal -0.921302825 0.279474156 0.270361427
outer loop
vertex -0.084727071 0.035095102 0.180000000
vertex -0.089945779 0.017891328 0.180000000
vertex -0.076107967 0.015138816 0.230000000
endloop
endfacet
facet normal -0.921302825 0.279474156 0.270361427
outer loop
vertex -0.084727071 0.035095102 0.180000000
vertex -0.076107967 0.015138816 0.230000000
vertex -0.071692137 0.029695855 0.230000000
endloop
endfacet
facet normal -0.958122952 0.094366874 0.270361427
outer loop
vertex -0.089945779 0.017891328 0.180000000
vertex -0.091707921 0.000000000 0.180000000
vertex -0.077599010 0.000000000 0.230000000
endloop
endfacet
facet normal -0.958122952 0.094366874 0.270361427
outer loop
vertex -0.089945779 0.017891328 0.180000000
vertex -0.077599010 0.000000000 0.230000000
vertex -0.076107967 0.015138816 0.230000000
endloop
endfacet
facet normal -0.958122952 -0.094366874 0.270361427
outer loop
vertex -0.091707921 0.000000000 0.180000000
vertex -0.089945779 -0.017891328 0.180000000
vertex -0.076107967 -0.015138816 0.230000000
endloop
endfacet
facet normal -0.958122952 -0.094366874 0.270361427
outer loop
vertex -0.091707921 0.000000000 0.180000000
vertex -0.076107967 -0.015138816 0.230000000
vertex -0.077599010 0.000000000 0.230000000
endloop
endfacet
facet normal -0.921302825 -0.279474156 0.270361427
outer loop
vertex -0.089945779 -0.017891328 0.180000000
vertex -0.084727071 -0.035095102 0.180000000
vertex -0.071692137 -0.029695855 0.230000000
endloop
endfacet
facet normal -0.921302825 -0.279474156 0.270361427
outer loop
vertex -0.089945779 -0.017891328 0.180000000
vertex -0.071692137 -0.029695855 0.230000000
vertex -0.076107967 -0.015138816 0.230000000
endloop
endfacet
facet normal -0.849077546 -0.453841404 0.270361427
outer loop
vertex -0.084727071 -0.035095102 0.180000000
vertex -0.076252349 -0.050950191 0.180000000
vertex -0.064521219 -0.043111700 0.230000000
endloop
endfacet
facet normal -0.849077546 -0.453841404 0.270361427
outer loop
vertex -0.084727071 -0.035095102 0.180000000
vertex -0.064521219 -0.043111700 0.230000000
vertex -0.071692137 -0.029695855 0.230000000
endloop
endfacet
facet normal -0.744222693 -0.610767780 0.270361427
outer loop
vertex -0.076252349 -0.050950191 0.180000000
vertex -0.064847293 -0.064847293 0.180000000
vertex -0.054870786 -0.054870786 0.230000000
endloop
endfacet
facet normal -0.744222693 -0.610767780 0.270361427
outer loop
vertex -0.076252349 -0.050950191 0.180000000
vertex -0.054870786 -0.054870786 0.230000000
vertex -0.064521219 -0.043111700 0.230000000
endloop
endfacet
facet normal -0.610767780 -0.744222693 0.270361427
outer loop
vertex -0.064847293 -0.064847293 0.180000000
vertex -0.050950191 -0.076252349 0.180000000
vertex -0.043111700 -0.064521219 0.230000000
endloop
endfacet
facet normal -0.610767780 -0.744222693 0.270361427
outer loop
vertex -0.064847293 -0.064847293 0.180000000
vertex -0.043111700 -0.064521219 0.230000000
vertex -0.054870786 -0.054870786 0.230000000
endloop
endfacet
facet normal -0.453841404 -0.849077546 0.270361427
outer loop
vertex -0.050950191 -0.076252349 0.180000000
vertex -0.035095102 -0.084727071 0.180000000
vertex -0.029695855 -0.071692137 0.230000000
endloop
endfacet
facet normal -0.453841404 -0.849077546 0.270361427
outer loop
vertex -0.050950191 -0.076252349 0.180000000
vertex -0.029695855 -0.071692137 0.230000000
vertex -0.043111700 -0.064521219 0.230000000
endloop
endfacet
facet normal -0.279474156 -0.921302825 0.270361427
outer loop
vertex -0.035095102 -0.084727071 0.180000000
vertex -0.017891328 -0.089945779 0.180000000
vertex -0.015138816 -0.076107967 0.230000000
endloop
endfacet
facet normal -0.279474156 -0.921302825 0.270361427
outer loop
vertex -0.035095102 -0.084727071 0.180000000
vertex -0.015138816 -0.076107967 0.230000000
vertex -0.029695855 -0.071692137 0.230000000
endloop
endfacet
facet normal -0.094366874 -0.958122952 0.270361427
outer loop
vertex -0.017891328 -0.089945779 0.180000000
vertex -0.000000000 -0.091707921 0.180000000
vertex -0.000000000 -0.077599010 0.230000000
endloop
endfacet
facet normal -0.094366874 -0.958122952 0.270361427
outer loop
vertex -0.017891328 -0.089945779 0.180000000
vertex -0.000000000 -0.077599010 0.230000000
vertex -0.015138816 -0.076107967 0.230000000
endloop
endfacet
facet normal 0.094366874 -0.958122952 0.270361427
outer loop
vertex -0.000000000 -0.091707921 0.180000000
vertex 0.017891328 -0.089945779 0.180000000
vertex 0.015138816 -0.076107967 0.230000000
endloop
endfacet
facet normal 0.094366874 -0.958122952 0.270361427
outer loop
vertex -0.000000000 -0.091707921 0.180000000
vertex 0.015138816 -0.076107967 0.230000000
vertex -0.000000000 -0.077599010 0.230000000
endloop
endfacet
facet normal 0.279474156 -0.921302825 0.270361427
outer loop
vertex 0.017891328 -0.089945779 0.180000000
vertex 0.035095102 -0.084727071 0.180000000
vertex 0.029695855 -0.071692137 0.230000000
endloop
endfacet
facet normal 0.279474156 -0.921302825 0.270361427
outer loop
vertex 0.017891328 -0.089945779 0.180000000
vertex 0.029695855 -0.071692137 0.230000000
vertex 0.015138816 -0.076107967 0.230000000
endloop
endfacet
facet normal 0.453841404 -0.849077546 0.270361427
outer loop
vertex 0.035095102 -0.084727071 0.180000000
vertex 0.050950191 -0.076252349 0.180000000
vertex 0.043111700 -0.064521219 0.230000000
endloop
endfacet
facet normal 0.453841404 -0.849077546 0.270361427
outer loop
vertex 0.035095102 -0.084727071 0.180000000
vertex 0.043111700 -0.064521219 0.230000000
vertex 0.029695855 -0.071692137 0.230000000
endloop
endfacet
facet normal 0.610767780 -0.744222693 0.270361427
outer loop
vertex 0.050950191 -0.076252349 0.180000000
vertex 0.064847293 -0.064847293 0.180000000
vertex 0.054870786 -0.054870786 0.230000000
endloop
endfacet
facet normal 0.610767780 -0.744222693 0.270361427
outer loop
vertex 0.050950191 -0.076252349 0.180000000
vertex 0.054870786 -0.054870786 0.230000000
vertex 0.043111700 -0.064521219 0.230000000
endloop
endfacet
facet normal 0.744222693 -0.610767780 0.270361427
outer loop
vertex 0.064847293 -0.064847293 0.180000000
vertex 0.076252349 -0.050950191 0.180000000
vertex 0.064521219 -0.043111700 0.230000000
endloop
endfacet
facet normal 0.744222693 -0.610767780 0.270361427
outer loop
vertex 0.064847293 -0.064847293 0.180000000
vertex 0.064521219 -0.043111700 0.230000000
vertex 0.054870786 -0.054870786 0.230000000
endloop
endfacet
facet normal 0.849077546 -0.453841404 0.270361427
outer loop
vertex 0.076252349 -0.050950191 0.180000000
vertex 0.084727071 -0.035095102 0.180000000
vertex 0.071692137 -0.029695855 0.230000000
endloop
endfacet
facet normal 0.849077546 -0.453841404 0.270361427
outer loop
vertex 0.076252349 -0.050950191 0.180000000
vertex 0.071692137 -0.029695855 0.230000000
vertex 0.064521219 -0.043111700 0.230000000
endloop
endfacet
facet normal 0.921302825 -0.279474156 0.270361427
outer loop
vertex 0.084727071 -0.035095102 0.180000000
vertex 0.089945779 -0.017891328 0.180000000
vertex 0.076107967 -0.015138816 0.230000000
endloop
endfacet
facet normal 0.921302825 -0.279474156 0.270361427
outer loop
vertex 0.084727071 -0.035095102 0.180000000
vertex 0.076107967 -0.015138816 0.230000000
vertex 0.071692137 -0.029695855 0.230000000
endloop
endfacet
facet normal 0.958122952 -0.094366874 0.270361427
outer loop
vertex 0.089945779 -0.017891328 0.180000000
vertex 0.091707921 -0.000000000 0.180000000
vertex 0.077599010 -0.000000000 0.230000000
endloop
endfacet
facet normal 0.958122952 -0.094366874 0.270361427
outer loop
vertex 0.089945779 -0.017891328 0.180000000
vertex 0.077599010 -0.000000000 0.230000000
vertex 0.076107967 -0.015138816 0.230000000
endloop
endfacet
facet normal 0.958122952 0.094366874 0.270361427
outer loop
vertex 0.049381188 0.000000000 0.330000000
vertex 0.048432342 0.009633792 0.330000000
vertex 0.034594530 0.006881280 0.380000000
endloop
endfacet
facet normal 0.958122952 0.094366874 0.270361427
outer loop
vertex 0.049381188 0.000000000 0.330000000
vertex 0.034594530 0.006881280 0.380000000
vertex 0.035272277 0.000000000 0.380000000
endloop
endfacet
facet normal 0.921302825 0.279474156 0.270361427
outer loop
vertex 0.048432342 0.009633792 0.330000000
vertex 0.045622269 0.018897363 0.330000000
vertex 0.032587335 0.013498116 0.380000000
endloop
endfacet
facet normal 0.921302825 0.279474156 0.270361427
outer loop
vertex 0.048432342 0.009633792 0.330000000
vertex 0.032587335 0.013498116 0.380000000
vertex 0.034594530 0.006881280 0.380000000
endloop
endfacet
facet normal 0.849077546 0.453841404 0.270361427
outer loop
vertex 0.045622269 0.018897363 0.330000000
vertex 0.041058957 0.027434718 0.330000000
vertex 0.029327827 0.019596227 0.380000000
endloop
endfacet
facet normal 0.849077546 0.453841404 0.270361427
outer loop
vertex 0.045622269 0.018897363 0.330000000
vertex 0.029327827 0.019596227 0.380000000
vertex 0.032587335 0.013498116 0.380000000
endloop
endfacet
facet normal 0.744222693 0.610767780 0.270361427
outer loop
vertex 0.041058957 0.027434718 0.330000000
vertex 0.034917773 0.034917773 0.330000000
vertex 0.024941266 0.024941266 0.380000000
endloop
endfacet
facet normal 0.744222693 0.610767780 0.270361427
outer loop
vertex 0.041058957 0.027434718 0.330000000
vertex 0.024941266 0.024941266 0.380000000
vertex 0.029327827 0.019596227 0.380000000
endloop
endfacet
facet normal 0.610767780 0.744222693 0.270361427
outer loop
vertex 0.034917773 0.034917773 0.330000000
vertex 0.027434718 0.041058957 0.330000000
vertex 0.019596227 0.029327827 0.380000000
endloop
endfacet
facet normal 0.610767780 0.744222693 0.270361427
outer loop
vertex 0.034917773 0.034917773 0.330000000
vertex 0.019596227 0.029327827 0.380000000
vertex 0.024941266 0.024941266 0.380000000
endloop
endfacet
facet normal 0.453841404 0.849077546 0.270361427
outer loop
vertex 0.027434718 0.041058957 0.330000000
vertex 0.018897363 0.045622269 0.330000000
vertex 0.013498116 0.032587335 0.380000000
endloop
endfacet
facet normal 0.453841404 0.849077546 0.270361427
outer loop
vertex 0.027434718 0.041058957 0.330000000
vertex 0.013498116 0.032587335 0.380000000
vertex 0.019596227 0.029327827 0.380000000
endloop
endfacet
facet normal 0.279474156 0.921302825 0.270361427
outer loop
vertex 0.018897363 0.045622269 0.330000000
vertex 0.009633792 0.048432342 0.330000000
vertex 0.006881280 0.034594530 0.380000000
endloop
endfacet
facet normal 0.279474156 0.921302825 0.270361427
outer loop
vertex 0.018897363 0.045622269 0.330000000
vertex 0.006881280 0.034594530 0.380000000
vertex 0.013498116 0.032587335 0.380000000
endloop
endfacet
facet normal 0.094366874 0.958122952 0.270361427
outer loop
vertex 0.009633792 0.048432342 0.330000000
vertex 0.000000000 0.049381188 0.330000000
vertex 0.000000000 0.035272277 0.380000000
endloop
endfacet
facet normal 0.094366874 0.958122952 0.270361427
outer loop
vertex 0.009633792 0.048432342 0.330000000
vertex 0.000000000 0.035272277 0.380000000
vertex 0.006881280 0.034594530 0.380000000
endloop
endfacet
facet normal -0.094366874 0.958122952 0.270361427
outer loop
vertex 0.000000000 0.049381188 0.330000000
vertex -0.009633792 0.048432342 0.330000000
vertex -0.006881280 0.034594530 0.380000000
endloop
endfacet
facet normal -0.094366874 0.958122952 0.270361427
outer loop
vertex 0.000000000 0.049381188 0.330000000
vertex -0.006881280 0.034594530 0.380000000
vertex 0.000000000 0.035272277 0.380000000
endloop
endfacet
facet normal -0.279474156 0.921302825 0.270361427
outer loop
vertex -0.009633792 0.048432342 0.330000000
vertex -0.018897363 0.045622269 0.330000000
vertex -0.013498116 0.032587335 0.380000000
endloop
endfacet
facet normal -0.279474156 0.921302825 0.270361427
outer loop
vertex -0.009633792 0.048432342 0.330000000
vertex -0.013498116 0.032587335 0.380000000
vertex -0.006881280 0.034594530 0.380000000
endloop
endfacet
facet normal -0.453841404 0.849077546 0.270361427
outer loop
vertex -0.018897363 0.045622269 0.330000000
vertex -0.027434718 0.041058957 0.330000000
vertex -0.019596227 0.029327827 0.380000000
endloop
endfacet
facet normal -0.453841404 0.849077546 0.270361427
outer loop
vertex -0.018897363 0.045622269 0.330000000
vertex -0.019596227 0.029327827 0.380000000
vertex -0.013498116 0.032587335 0.380000000
endloop
endfacet
facet normal -0.610767780 0.744222693 0.270361427
outer loop
vertex -0.027434718 0.041058957 0.330000000
vertex -0.034917773 0.034917773 0.330000000
vertex -0.024941266 0.024941266 0.380000000
endloop
endfacet
facet normal -0.610767780 0.744222693 0.270361427
outer loop
vertex -0.027434718 0.041058957 0.330000000
vertex -0.024941266 0.024941266 0.380000000
vertex -0.019596227 0.029327827 0.380000000
endloop
endfacet
facet normal -0.744222693 0.610767780 0.270361427
outer loop
vertex -0.034917773 0.034917773 0.330000000
vertex -0.041058957 0.027434718 0.330000000
vertex -0.029327827 0.019596227 0.380000000
endloop
endfacet
facet normal -0.744222693 0.610767780 0.270361427
outer loop
vertex -0.034917773 0.034917773 0.330000000
vertex -0.029327827 0.019596227 0.380000000
vertex -0.024941266 0.024941266 0.380000000
endloop
endfacet
facet normal -0.849077546 0.453841404 0.270361427
outer loop
vertex -0.041058957 0.027434718 0.330000000
vertex -0.045622269 0.018897363 0.330000000
vertex -0.032587335 0.013498116 0.380000000
endloop
endfacet
facet normal -0.849077546 0.453841404 0.270361427
outer loop
vertex -0.041058957 0.027434718 0.330000000
vertex -0.032587335 0.013498116 0.380000000
vertex -0.029327827 0.019596227 0.380000000
endloop
endfacet
facet normal -0.921302825 0.279474156 0.270361427
outer loop
vertex -0.045622269 0.018897363 0.330000000
vertex -0.048432342 0.009633792 0.330000000
vertex -0.034594530 0.006881280 0.380000000
endloop
endfacet
facet normal -0.921302825 0.279474156 0.270361427
outer loop
vertex -0.045622269 0.018897363 0.330000000
vertex -0.034594530 0.006881280 0.380000000
vertex -0.032587335 0.013498116 0.380000000
endloop
endfacet
facet normal -0.958122952 0.094366874 0.270361427
outer loop
vertex -0.048432342 0.009633792 0.330000000
vertex -0.049381188 0.000000000 0.330000000
vertex -0.035272277 0.000000000 0.380000000
endloop
endfacet
facet normal -0.958122952 0.094366874 0.270361427
outer loop
vertex -0.048432342 0.009633792 0.330000000
vertex -0.035272277 0.000000000 0.380000000
vertex -0.034594530 0.006881280 0.380000000
endloop
endfacet
facet normal -0.958122952 -0.094366874 0.270361427
outer loop
vertex -0.049381188 0.000000000 0.330000000
vertex -0.048432342 -0.009633792 0.330000000
vertex -0.034594530 -0.006881280 0.380000000
endloop
endfacet
facet normal -0.958122952 -0.094366874 0.270361427
outer loop
vertex -0.049381188 0.000000000 0.330000000
vertex -0.034594530 -0.006881280 0.380000000
vertex -0.035272277 0.000000000 0.380000000
endloop
endfacet
facet normal -0.921302825 -0.279474156 0.270361427
outer loop
vertex -0.048432342 -0.009633792 0.330000000
vertex -0.045622269 -0.018897363 0.330000000
vertex -0.032587335 -0.013498116 0.380000000
endloop
endfacet
facet normal -0.921302825 -0.279474156 0.270361427
outer loop
vertex -0.048432342 -0.009633792 0.330000000
vertex -0.032587335 -0.013498116 0.380000000
vertex -0.034594530 -0.006881280 0.380000000
endloop
endfacet
facet normal -0.849077546 -0.453841404 0.270361427
outer loop
vertex -0.045622269 -0.018897363 0.330000000
vertex -0.041058957 -0.027434718 0.330000000
vertex -0.029327827 -0.019596227 0.380000000
endloop
endfacet
facet normal -0.849077546 -0.453841404 0.270361427
outer loop
vertex -0.045622269 -0.018897363 0.330000000
vertex -0.029327827 -0.019596227 0.380000000
vertex -0.032587335 -0.013498116 0.380000000
endloop
endfacet
facet normal -0.744222693 -0.610767780 0.270361427
outer loop
vertex -0.041058957 -0.027434718 0.330000000
vertex -0.034917773 -0.034917773 0.330000000
vertex -0.024941266 -0.024941266 0.380000000
endloop
endfacet
facet normal -0.744222693 -0.610767780 0.270361427
outer loop
vertex -0.041058957 -0.027434718 0.330000000
vertex -0.024941266 -0.024941266 0.380000000
vertex -0.029327827 -0.019596227 0.380000000
endloop
endfacet
facet normal -0.610767780 -0.744222693 0.270361427
outer loop
vertex -0.034917773 -0.034917773 0.330000000
vertex -0.027434718 -0.041058957 0.330000000
vertex -0.019596227 -0.029327827 0.380000000
endloop
endfacet
facet normal -0.610767780 -0.744222693 0.270361427
outer loop
vertex -0.034917773 -0.034917773 0.330000000
vertex -0.019596227 -0.029327827 0.380000000
vertex -0.024941266 -0.024941266 0.380000000
endloop
endfacet
facet normal -0.453841404 -0.849077546 0.270361427
outer loop
vertex -0.027434718 -0.041058957 0.330000000
vertex -0.018897363 -0.045622269 0.330000000
vertex -0.013498116 -0.032587335 0.380000000
endloop
endfacet
facet normal -0.453841404 -0.849077546 0.270361427
outer loop
vertex -0.027434718 -0.041058957 0.330000000
vertex -0.013498116 -0.032587335 0.380000000
vertex -0.019596227 -0.029327827 0.380000000
endloop
endfacet
facet normal -0.279474156 -0.921302825 0.270361427
outer loop
vertex -0.018897363 -0.045622269 0.330000000
vertex -0.009633792 -0.048432342 0.330000000
vertex -0.006881280 -0.034594530 0.380000000
endloop
endfacet
facet normal -0.279474156 -0.921302825 0.270361427
outer loop
vertex -0.018897363 -0.045622269 0.330000000
vertex -0.006881280 -0.034594530 0.380000000
vertex -0.013498116 -0.032587335 0.380000000
endloop
endfacet
facet normal -0.094366874 -0.958122952 0.270361427
outer loop
vertex -0.009633792 -0.048432342 0.330000000
vertex -0.000000000 -0.049381188 0.330000000
vertex -0.000000000 -0.035272277 0.380000000
endloop
endfacet
facet normal -0.094366874 -0.958122952 0.270361427
outer loop
vertex -0.009633792 -0.048432342 0.330000000
vertex -0.000000000 -0.035272277 0.380000000
vertex -0.006881280 -0.034594530 0.380000000
endloop
endfacet
facet normal 0.094366874 -0.958122952 0.270361427
outer loop
vertex -0.000000000 -0.049381188 0.330000000
vertex 0.009633792 -0.048432342 0.330000000
vertex 0.006881280 -0.034594530 0.380000000
endloop
endfacet
facet normal 0.094366874 -0.958122952 0.270361427
outer loop
vertex -0.000000000 -0.049381188 0.330000000
vertex 0.006881280 -0.034594530 0.380000000
vertex -0.000000000 -0.035272277 0.380000000
endloop
endfacet
facet normal 0.279474156 -0.921302825 0.270361427
outer loop
vertex 0.009633792 -0.048432342 0.330000000
vertex 0.018897363 -0.045622269 0.330000000
vertex 0.013498116 -0.032587335 0.380000000
endloop
endfacet
facet normal 0.279474156 -0.921302825 0.270361427
outer loop
vertex 0.009633792 -0.048432342 0.330000000
vertex 0.013498116 -0.032587335 0.380000000
vertex 0.006881280 -0.034594530 0.380000000
endloop
endfacet
facet normal 0.453841404 -0.849077546 0.270361427
outer loop
vertex 0.018897363 -0.045622269 0.330000000
vertex 0.027434718 -0.041058957 0.330000000
vertex 0.019596227 -0.029327827 0.380000000
endloop
endfacet
facet normal 0.453841404 -0.849077546 0.270361427
outer loop
vertex 0.018897363 -0.045622269 0.330000000
vertex 0.019596227 -0.029327827 0.380000000
vertex 0.013498116 -0.032587335 0.380000000
endloop
endfacet
facet normal 0.610767780 -0.744222693 0.270361427
outer loop
vertex 0.027434718 -0.041058957 0.330000000
vertex 0.034917773 -0.034917773 0.330000000
vertex 0.024941266 -0.024941266 0.380000000
endloop
endfacet
facet normal 0.610767780 -0.744222693 0.270361427
outer loop
vertex 0.027434718 -0.041058957 0.330000000
vertex 0.024941266 -0.024941266 0.380000000
vertex 0.019596227 -0.029327827 0.380000000
endloop
endfacet
facet normal 0.744222693 -0.610767780 0.270361427
outer loop
vertex 0.034917773 -0.034917773 0.330000000
vertex 0.041058957 -0.027434718 0.330000000
vertex 0.029327827 -0.019596227 0.380000000
endloop
endfacet
facet normal 0.744222693 -0.610767780 0.270361427
outer loop
vertex 0.034917773 -0.034917773 0.330000000
vertex 0.029327827 -0.019596227 0.380000000
vertex 0.024941266 -0.024941266 0.380000000
endloop
endfacet
facet normal 0.849077546 -0.453841404 0.270361427
outer loop
vertex 0.041058957 -0.027434718 0.330000000
vertex 0.045622269 -0.018897363 0.330000000
vertex 0.032587335 -0.013498116 0.380000000
endloop
endfacet
facet normal 0.849077546 -0.453841404 0.270361427
outer loop
vertex 0.041058957 -0.027434718 0.330000000
vertex 0.032587335 -0.013498116 0.380000000
vertex 0.029327827 -0.019596227 0.380000000
endloop
endfacet
facet normal 0.921302825 -0.279474156 0.270361427
outer loop
vertex 0.045622269 -0.018897363 0.330000000
vertex 0.048432342 -0.009633792 0.330000000
vertex 0.034594530 -0.006881280 0.380000000
endloop
endfacet
facet normal 0.921302825 -0.279474156 0.270361427
outer loop
vertex 0.045622269 -0.018897363 0.330000000
vertex 0.034594530 -0.006881280 0.380000000
vertex 0.032587335 -0.013498116 0.380000000
endloop
endfacet
facet normal 0.958122952 -0.094366874 0.270361427
outer loop
vertex 0.048432342 -0.009633792 0.330000000
vertex 0.049381188 -0.000000000 0.330000000
vertex 0.035272277 -0.000000000 0.380000000
endloop
endfacet
facet normal 0.958122952 -0.094366874 0.270361427
outer loop
vertex 0.048432342 -0.009633792 0.330000000
vertex 0.035272277 -0.000000000 0.380000000
vertex 0.034594530 -0.006881280 0.380000000
endloop
endfacet
endsolid cone
